<svg width="50" height="51" viewBox="0 0 50 51" fill="none" xmlns="http://www.w3.org/2000/svg">
<path d="M15.6248 9.90255C14.5165 9.90223 13.428 10.1966 12.4709 10.7556C11.5139 11.3146 10.7227 12.118 10.1784 13.0835C9.6342 14.049 9.3565 15.1419 9.3738 16.2501C9.39111 17.3583 9.70279 18.442 10.2769 19.39C8.85095 19.6656 7.5654 20.4289 6.64098 21.5491C5.71656 22.6692 5.21094 24.0763 5.21094 25.5286C5.21094 26.9809 5.71656 28.388 6.64098 29.5081C7.5654 30.6282 8.85095 31.3916 10.2769 31.6671M15.6248 9.90255C15.6248 8.52121 16.1736 7.19645 17.1503 6.2197C18.1271 5.24295 19.4518 4.69421 20.8332 4.69421C22.2145 4.69421 23.5393 5.24295 24.516 6.2197C25.4928 7.19645 26.0415 8.52121 26.0415 9.90255V13.0275M15.6248 9.90255C15.6248 11.6067 16.4436 13.1192 17.7082 14.0692M10.2769 31.6671C9.70333 32.6151 9.39207 33.6986 9.37504 34.8065C9.35801 35.9144 9.63581 37.0069 10.18 37.9721C10.7242 38.9373 11.5152 39.7404 12.4719 40.2993C13.4287 40.8582 14.5168 41.1526 15.6248 41.1525C15.6251 42.5339 16.1741 43.8585 17.1511 44.8351C18.128 45.8116 19.4529 46.3601 20.8342 46.3598C22.2155 46.3596 23.5402 45.8106 24.5167 44.8336C25.4933 43.8567 26.0418 42.5318 26.0415 41.1505V38.0275M10.2769 31.6671C11.0246 30.4294 12.1783 29.4892 13.5415 29.0067M31.2498 31.7775V35.9442M37.4998 31.7775V35.9442M31.2498 15.1109V19.2775M37.4998 15.1109V19.2775M28.1248 22.4025H23.9582M28.1248 28.6525H23.9582M44.7915 22.4025H40.6248M44.7915 28.6525H40.6248M36.4582 19.2775H32.2915C30.3269 19.2775 29.3457 19.2775 28.7352 19.888C28.1248 20.4984 28.1248 21.4796 28.1248 23.4442V27.6109C28.1248 29.5755 28.1248 30.5567 28.7352 31.1671C29.3457 31.7775 30.3269 31.7775 32.2915 31.7775H36.4582C38.4227 31.7775 39.404 31.7775 40.0144 31.1671C40.6248 30.5567 40.6248 29.5755 40.6248 27.6109V23.4442C40.6248 21.4796 40.6248 20.4984 40.0144 19.888C39.404 19.2775 38.4227 19.2775 36.4582 19.2775Z" stroke="white" stroke-width="3.125" stroke-linecap="round" stroke-linejoin="round"/>
</svg>
