<svg width="50" height="51" viewBox="0 0 50 51" fill="none" xmlns="http://www.w3.org/2000/svg">
<g clip-path="url(#clip0_1403_147)">
<path d="M8.33301 15.1109C8.33301 10.5068 15.7913 6.77759 24.9997 6.77759C34.208 6.77759 41.6663 10.5068 41.6663 15.1109C41.6663 19.7151 34.208 23.4443 24.9997 23.4443C15.7913 23.4443 8.33301 19.7151 8.33301 15.1109ZM25.1663 38.0276H24.9997C15.7913 38.0276 8.33301 34.2984 8.33301 29.6943V35.9443C8.33301 40.5484 15.7913 44.2776 24.9997 44.2776H25.6038C25.2129 42.9229 25.0096 41.5209 24.9997 40.1109C24.9997 39.4026 25.0622 38.7151 25.1663 38.0276ZM41.6663 25.6943V19.2776C41.6663 23.8818 34.208 27.6109 24.9997 27.6109C15.7913 27.6109 8.33301 23.8818 8.33301 19.2776V25.5276C8.33301 30.1318 15.7913 33.8609 24.9997 33.8609H26.4372C28.7913 28.9234 33.7913 25.5276 39.583 25.5276C40.2913 25.5276 40.9788 25.5901 41.6663 25.6943ZM49.583 43.0276C49.7913 43.0276 49.7913 43.2359 49.583 43.4443L47.4997 46.9859C47.2913 47.1943 47.083 47.1943 46.8747 47.1943L44.3747 46.3609C43.7497 46.7776 43.333 46.9859 42.708 47.4026L42.2913 50.1109C42.2913 50.3193 42.083 50.5276 41.8747 50.5276H37.708C37.4997 50.5276 37.2913 50.3193 37.083 50.1109L36.6663 47.4026C36.0413 47.1943 35.4163 46.7776 34.9997 46.3609L32.4997 47.4026C32.2913 47.4026 32.083 47.4026 31.8747 47.1943L29.7913 43.6526C29.583 43.4443 29.7913 43.2359 29.9997 43.0276L32.2913 41.3609V39.2776L29.9997 37.6109C29.7913 37.4026 29.7913 37.1943 29.7913 36.9859L31.8747 33.4443C32.083 33.2359 32.2913 33.2359 32.4997 33.2359L34.9997 34.2776C35.6247 33.8609 36.0413 33.6526 36.6663 33.2359L37.083 30.5276C37.083 30.3193 37.2913 30.1109 37.708 30.1109H41.8747C42.083 30.1109 42.2913 30.3193 42.2913 30.5276L42.708 33.2359C43.333 33.4443 43.958 33.8609 44.583 34.2776L47.083 33.2359C47.2913 33.2359 47.708 33.2359 47.708 33.4443L49.7913 36.9859C49.9997 37.1943 49.7913 37.4026 49.583 37.6109L47.2913 39.2776V41.3609L49.583 43.0276ZM42.708 40.1109C42.708 38.4443 41.2497 36.9859 39.583 36.9859C37.9163 36.9859 36.458 38.4443 36.458 40.1109C36.458 41.7776 37.9163 43.2359 39.583 43.2359C41.2497 43.2359 42.708 41.7776 42.708 40.1109Z" fill="white"/>
</g>
<defs>
<clipPath id="clip0_1403_147">
<rect width="50" height="50" fill="white" transform="translate(0 0.527588)"/>
</clipPath>
</defs>
</svg>
