<svg width="50" height="51" viewBox="0 0 50 51" fill="none" xmlns="http://www.w3.org/2000/svg">
<g clip-path="url(#clip0_1403_142)">
<path d="M12.5 21.361V31.7776H37.5V21.361H12.5ZM27.0833 27.611H14.5833V25.5276H27.0833V27.611ZM30.2083 27.611C30.0023 27.611 29.8009 27.5499 29.6296 27.4354C29.4583 27.321 29.3248 27.1583 29.246 26.9679C29.1671 26.7776 29.1465 26.5681 29.1867 26.3661C29.2269 26.164 29.3261 25.9784 29.4718 25.8327C29.6174 25.687 29.803 25.5878 30.0051 25.5476C30.2072 25.5075 30.4166 25.5281 30.607 25.6069C30.7973 25.6858 30.96 25.8193 31.0744 25.9906C31.1889 26.1619 31.25 26.3633 31.25 26.5693C31.25 26.8456 31.1403 27.1105 30.9449 27.3059C30.7496 27.5012 30.4846 27.611 30.2083 27.611ZM34.375 27.611C34.169 27.611 33.9676 27.5499 33.7963 27.4354C33.625 27.321 33.4915 27.1583 33.4126 26.9679C33.3338 26.7776 33.3132 26.5681 33.3533 26.3661C33.3935 26.164 33.4927 25.9784 33.6384 25.8327C33.7841 25.687 33.9697 25.5878 34.1718 25.5476C34.3738 25.5075 34.5833 25.5281 34.7736 25.6069C34.964 25.6858 35.1267 25.8193 35.2411 25.9906C35.3556 26.1619 35.4167 26.3633 35.4167 26.5693C35.4167 26.8456 35.3069 27.1105 35.1116 27.3059C34.9162 27.5012 34.6513 27.611 34.375 27.611ZM12.5 35.9443V46.361H37.5V35.9443H12.5ZM27.0833 42.1943H14.5833V40.111H27.0833V42.1943ZM30.2083 42.1943C30.0023 42.1943 29.8009 42.1332 29.6296 42.0187C29.4583 41.9043 29.3248 41.7416 29.246 41.5513C29.1671 41.3609 29.1465 41.1515 29.1867 40.9494C29.2269 40.7473 29.3261 40.5617 29.4718 40.4161C29.6174 40.2704 29.803 40.1712 30.0051 40.131C30.2072 40.0908 30.4166 40.1114 30.607 40.1903C30.7973 40.2691 30.96 40.4026 31.0744 40.5739C31.1889 40.7452 31.25 40.9466 31.25 41.1526C31.25 41.4289 31.1403 41.6938 30.9449 41.8892C30.7496 42.0845 30.4846 42.1943 30.2083 42.1943ZM34.375 42.1943C34.169 42.1943 33.9676 42.1332 33.7963 42.0187C33.625 41.9043 33.4915 41.7416 33.4126 41.5513C33.3338 41.3609 33.3132 41.1515 33.3533 40.9494C33.3935 40.7473 33.4927 40.5617 33.6384 40.4161C33.7841 40.2704 33.9697 40.1712 34.1718 40.131C34.3738 40.0908 34.5833 40.1114 34.7736 40.1903C34.964 40.2691 35.1267 40.4026 35.2411 40.5739C35.3556 40.7452 35.4167 40.9466 35.4167 41.1526C35.4167 41.4289 35.3069 41.6938 35.1116 41.8892C34.9162 42.0845 34.6513 42.1943 34.375 42.1943Z" fill="white"/>
<path d="M47.8436 17.1943C46.9196 16.0505 45.7785 15.1009 44.4859 14.4001C43.1934 13.6993 41.7749 13.2612 40.3123 13.1109C39.6856 9.93639 38.0878 7.0351 35.7399 4.80849C33.392 2.58187 30.4101 1.14001 27.2069 0.6824C24.0036 0.224789 20.7373 0.774052 17.8598 2.25419C14.9824 3.73433 12.6361 6.07218 11.1457 8.94425C10.1851 9.06034 9.24129 9.28755 8.33316 9.62133C5.8977 10.4762 3.78788 12.0664 2.29528 14.1722C0.802674 16.278 0.000976562 18.7954 0.000976562 21.3765C0.000976562 23.9577 0.802674 26.4751 2.29528 28.5809C3.78788 30.6867 5.8977 32.2769 8.33316 33.1317V17.1943H41.6665V33.6526C44.0193 33.1723 46.134 31.8939 47.6525 30.0336C49.1711 28.1734 50.0003 25.8456 49.9998 23.4443C49.9943 21.1794 49.2357 18.9807 47.8436 17.1943Z" fill="white"/>
</g>
<defs>
<clipPath id="clip0_1403_142">
<rect width="50" height="50" fill="white" transform="translate(0 0.527588)"/>
</clipPath>
</defs>
</svg>
