<svg width="50" height="51" viewBox="0 0 50 51" fill="none" xmlns="http://www.w3.org/2000/svg">
<path d="M46.875 30.2151H40.625V23.9651H37.5V38.0276H12.5V13.0276H26.5625V9.90259H20.3125V3.65259H17.1875V9.90259H12.5C11.6712 9.90259 10.8763 10.2318 10.2903 10.8179C9.70424 11.4039 9.375 12.1988 9.375 13.0276V17.7151H3.125V20.8401H9.375V30.2151H3.125V33.3401H9.375V38.0276C9.375 38.8564 9.70424 39.6512 10.2903 40.2373C10.8763 40.8233 11.6712 41.1526 12.5 41.1526H17.1875V47.4026H20.3125V41.1526H29.6875V47.4026H32.8125V41.1526H37.5C38.3284 41.1513 39.1226 40.8217 39.7083 40.2359C40.2941 39.6501 40.6238 38.856 40.625 38.0276V33.3401H46.875V30.2151Z" fill="white"/>
<path d="M32.8125 33.3401H17.1875V17.7151H32.8125V33.3401ZM20.3125 30.2151H29.6875V20.8401H20.3125V30.2151ZM48.4375 20.8401H45.3125C45.3084 16.6973 43.6608 12.7255 40.7315 9.79611C37.8021 6.86675 33.8302 5.21922 29.6875 5.21509V2.09009C34.6587 2.09546 39.4247 4.07263 42.9398 7.58777C46.455 11.1029 48.4321 15.8689 48.4375 20.8401Z" fill="white"/>
<path d="M40.625 20.8401H37.5C37.4975 18.7688 36.6736 16.7831 35.209 15.3186C33.7444 13.854 31.7587 13.0301 29.6875 13.0276V9.90259C32.587 9.90672 35.3666 11.0604 37.4169 13.1107C39.4672 15.161 40.6209 17.9406 40.625 20.8401Z" fill="white"/>
</svg>
