<svg width="50" height="51" viewBox="0 0 50 51" fill="none" xmlns="http://www.w3.org/2000/svg">
<path d="M5.20801 19.2776H44.7913M14.583 13.0276H14.6018M22.9163 13.0276H22.9351M5.20801 25.5276C5.20801 16.1985 5.20801 11.5318 8.10592 8.63388C11.0038 5.73596 15.6684 5.73596 24.9997 5.73596C34.3288 5.73596 38.9955 5.73596 41.8934 8.63388C44.7913 11.5318 44.7913 16.1964 44.7913 25.5276C44.7913 34.8568 44.7913 39.5235 41.8934 42.4214C38.9955 45.3193 34.3309 45.3193 24.9997 45.3193C15.6705 45.3193 11.0038 45.3193 8.10592 42.4214C5.20801 39.5235 5.20801 34.8589 5.20801 25.5276Z" stroke="white" stroke-width="1.5" stroke-linecap="round" stroke-linejoin="round"/>
<path d="M16.666 27.611L19.2223 29.813C20.2952 30.7401 20.8327 31.2026 20.8327 31.7776C20.8327 32.3526 20.2952 32.8151 19.2223 33.7422L16.666 35.9443M24.9993 35.9443H33.3327" stroke="white" stroke-width="1.5" stroke-linecap="round" stroke-linejoin="round"/>
</svg>
